<svg xmlns="http://www.w3.org/2000/svg" viewBox="0 0 1134.1 246.1"><defs><style>.cls-1{fill:#37394e;}.cls-2{fill:#f15a24;}.cls-3{fill:#78ccc5;}.cls-4{fill:#b6b6b6;}.cls-5{font-size:230px;font-family:Uni-Sans-Regular, Uni Sans Regular;}.cls-6{letter-spacing:0.01em;}.cls-7{letter-spacing:0em;}.cls-8{letter-spacing:0em;}.cls-9{letter-spacing:-0.02em;}</style></defs><title>logo</title><g id="Layer_1" data-name="Layer 1"><path class="cls-1" d="M262.79,399.41a37.09,37.09,0,1,1,37.09-37.09,37.13,37.13,0,0,1-37.09,37.09Zm0-71.2a34.11,34.11,0,1,0,34.11,34.11,34.15,34.15,0,0,0-34.11-34.11Z" transform="translate(-222.52 -202.99)"/><path class="cls-2" d="M262.79,395.66a33.34,33.34,0,1,1,33.34-33.34,33.38,33.38,0,0,1-33.34,33.34Zm0-65.19a31.85,31.85,0,1,0,31.85,31.85,31.88,31.88,0,0,0-31.85-31.85Z" transform="translate(-222.52 -202.99)"/><path class="cls-1" d="M377.41,399.41a37.09,37.09,0,1,1,37.09-37.09,37.13,37.13,0,0,1-37.09,37.09Zm0-71.2a34.11,34.11,0,1,0,34.11,34.11,34.15,34.15,0,0,0-34.11-34.11Z" transform="translate(-222.52 -202.99)"/><path class="cls-2" d="M377.41,395.66a33.34,33.34,0,1,1,33.34-33.34,33.38,33.38,0,0,1-33.34,33.34Zm0-65.19a31.85,31.85,0,1,0,31.85,31.85,31.88,31.88,0,0,0-31.85-31.85Z" transform="translate(-222.52 -202.99)"/><path class="cls-3" d="M378.79,360.9c-9.22-9-13.64-23.91-13.86-24.66L360,316.14a2,2,0,0,0-.09-.36L354.35,293l6.59-4.68c.41-.29,3.94-2.92,2.92-6.1s-6.13-4.72-16.48-4.72a2,2,0,1,0,0,4c10.76,0,12.49,1.71,12.68,2a4.15,4.15,0,0,1-1.43,1.67L351,290.58a2,2,0,0,0-.78,2.09l3.05,12.45c-1.61,2.75-19.44,32.09-46.76,33L295.9,291a2,2,0,0,0-3.87.87l4.23,18.87-35.1,50.43-.05.09-.1.17-.08.19-.05.17a2,2,0,0,0,0,.22s0,.06,0,.09,0,0,0,.07a2,2,0,0,0,0,.22c0,.06,0,.12,0,.18a1.92,1.92,0,0,0,0,.19c0,.06,0,.12.05.18s0,.12.07.18l.08.17.11.16.12.15.13.13.16.14.06,0,.12.07.11.06a2,2,0,0,0,.32.13h0a2,2,0,0,0,.36.07h0L310.73,369h.2a2,2,0,0,0,.38,0h0l.1,0,.22-.07,0,0,.12-.06.18-.1.05,0,.09-.08.15-.13.06-.06h0L357,320.48l4.1,16.74,0,.06c.19.67,4.73,16.52,14.91,26.45a2,2,0,1,0,2.77-2.84Zm-70.41,3.89-42-4.12L297.44,316Zm3.65-1.86-4.68-20.87c12.4-.64,24.7-6.7,35.73-17.64a92,92,0,0,0,11.46-13.93l1.32,5.38Z" transform="translate(-222.52 -202.99)"/><path class="cls-2" d="M306.95,293.1H290.24c-6.53,0-10.55-5.8-10.71-6a2.48,2.48,0,0,1,4.1-2.8c.05.08,2.76,3.88,6.62,3.88h16.71a2.48,2.48,0,0,1,0,5Z" transform="translate(-222.52 -202.99)"/><path class="cls-1" d="M313.89,362.43l3.93-12.83-2.85-.87L311,361.56h-.12a5.47,5.47,0,0,0-3,10.08L304,384.46l2.85.87,3.93-12.83h.12a5.48,5.48,0,0,0,3-10.08Z" transform="translate(-222.52 -202.99)"/><path class="cls-2" d="M321.34,350.91h-9.88a1.74,1.74,0,1,1,0-3.47h9.88a1.74,1.74,0,1,1,0,3.47Z" transform="translate(-222.52 -202.99)"/><path class="cls-2" d="M313.2,312.79h-9.88a1.74,1.74,0,0,1,0-3.47h9.88a1.74,1.74,0,0,1,0,3.47Z" transform="translate(-222.52 -202.99)"/><path class="cls-3" d="M302.85,358.25a40.27,40.27,0,0,0-80.33,4.21,1,1,0,0,0,2,0,38.17,38.17,0,0,1,12.23-28L262.42,362h0l.12.08,0,0a.5.5,0,0,0,.19,0h0l.06,0,.11,0,.08,0,.06,0,0,0,.06-.08,0-.08a.51.51,0,0,0,0-.09.54.54,0,0,0,0-.11s0,0,0,0L260,324.29c.91-.07,1.83-.11,2.76-.11a38.16,38.16,0,0,1,38.07,34.27,1,1,0,1,0,2-.21Zm-40.68,2-24.67-26.51a38.12,38.12,0,0,1,21.54-9.4Z" transform="translate(-222.52 -202.99)"/><path class="cls-2" d="M310.92,355.87h0l-47.59.21a5.47,5.47,0,0,0-1.41,10.76c.07.05,45.78,10.88,45.78,10.88h0a11.16,11.16,0,1,0,3.22-21.85Zm0,20.84a9.68,9.68,0,0,1,0-19.35h0a9.68,9.68,0,1,1,0,19.35Z" transform="translate(-222.52 -202.99)"/><circle class="cls-1" cx="40.8" cy="158.56" r="5.48"/><path class="cls-2" d="M347.88,282H334.36a2.48,2.48,0,1,1,0-5h13.52a2.48,2.48,0,0,1,0,5Z" transform="translate(-222.52 -202.99)"/><path class="cls-3" d="M377.41,324.12a1,1,0,0,0,0-2,40.23,40.23,0,0,0-40.19,40.19,1,1,0,1,0,2,0c0-.93,0-1.85.11-2.77l38,3.26h0a.49.49,0,0,0,.2,0l0,0a.49.49,0,0,0,.12-.1l0,0,0,0,0-.09a.46.46,0,0,0,0-.09.41.41,0,0,0,0,0,17.17,17.17,0,0,0,0-.15.44.44,0,0,0,0-.09l0-.08-.07-.08,0,0-30.39-23.1A38.15,38.15,0,0,1,377.41,324.12Zm-1.66,37.56-36.35-3.12a38,38,0,0,1,7.32-19Z" transform="translate(-222.52 -202.99)"/><path class="cls-4" d="M285.81,332.88a1.5,1.5,0,0,0,0-3,1.5,1.5,0,0,0,0,3Z" transform="translate(-222.52 -202.99)"/><text class="cls-5" transform="translate(224 196.42)">e<tspan class="cls-6" x="114.31" y="0">c</tspan><tspan class="cls-7" x="221.95" y="0">o.sh</tspan><tspan class="cls-8" x="612.71" y="0">a</tspan><tspan class="cls-9" x="727.94" y="0">r</tspan><tspan x="795.79" y="0">e</tspan></text></g></svg>